<svg width="37" height="42" viewBox="0 0 37 42" fill="none" xmlns="http://www.w3.org/2000/svg">
<path d="M6.78643 41V42C7.15324 42 7.4906 41.7992 7.66547 41.4767L6.78643 41ZM6.78536 40C6.23307 40 5.78536 40.4477 5.78536 41C5.78536 41.5523 6.23307 42 6.78536 42V40ZM30.2146 41V42C30.5671 42 30.8935 41.8144 31.0738 41.5115C31.2541 41.2087 31.2617 40.8332 31.0937 40.5233L30.2146 41ZM1.00707 19.364L1.98434 19.152L1.98433 19.152L1.00707 19.364ZM35.9929 19.3641L36.9702 19.5761L36.9702 19.5759L35.9929 19.3641ZM26.2313 31.5641L26.5479 32.5126L26.5479 32.5126L26.2313 31.5641ZM10.769 31.5637L10.4523 32.5122L10.4523 32.5123L10.769 31.5637ZM10.7885 31.5233L5.90739 40.5233L7.66547 41.4767L12.5466 32.4767L10.7885 31.5233ZM6.78643 40H6.78536V42H6.78643V40ZM6.78536 42H30.2146V40H6.78536V42ZM31.0937 40.5233L26.2136 31.5233L24.4555 32.4767L29.3355 41.4767L31.0937 40.5233ZM29.2621 19V2H27.2621V19H29.2621ZM29.2621 2C29.2621 0.918276 28.3999 0 27.2859 0V2C27.2839 2 27.281 1.99977 27.2775 1.99905C27.2741 1.99833 27.271 1.99731 27.2684 1.99616C27.2632 1.99391 27.261 1.99176 27.2606 1.99144C27.2603 1.99113 27.2607 1.99146 27.2611 1.9924C27.2612 1.99274 27.2621 1.99474 27.2621 2H29.2621ZM27.2859 0H9.71401V2H27.2859V0ZM9.71401 0C8.59999 0 7.73779 0.918276 7.73779 2H9.73779C9.73779 1.99474 9.73867 1.99274 9.73881 1.9924C9.7392 1.99146 9.73958 1.99113 9.73928 1.99144C9.73897 1.99176 9.73676 1.99391 9.73157 1.99616C9.72893 1.99731 9.72582 1.99833 9.72242 1.99905C9.71895 1.99977 9.71601 2 9.71401 2V0ZM7.73779 2V19H9.73779V2H7.73779ZM1.98433 19.152C2.0726 19.5588 1.77296 20 1.29214 20V18C0.43768 18 -0.139519 18.7956 0.029815 19.576L1.98433 19.152ZM1.29214 20H35.7078V18H1.29214V20ZM35.7078 20C35.227 20 34.9275 19.5588 35.0156 19.1523L36.9702 19.5759C37.1394 18.7956 36.5623 18 35.7078 18V20ZM35.0157 19.1521C33.8682 24.4419 30.7104 29.0147 25.9146 30.6156L26.5479 32.5126C32.2268 30.6169 35.7279 25.3027 36.9702 19.5761L35.0157 19.1521ZM25.9146 30.6156C23.5441 31.4069 20.9441 32 18.5011 32V34C21.2413 34 24.069 33.3401 26.5479 32.5126L25.9146 30.6156ZM18.5011 32C16.0576 32 13.4569 31.4067 11.0856 30.6151L10.4523 32.5123C12.932 33.3399 15.7604 34 18.5011 34V32ZM11.0856 30.6152C6.28991 29.0142 3.13187 24.4417 1.98434 19.152L0.0298051 19.576C1.27212 25.3027 4.77358 30.6166 10.4523 32.5122L11.0856 30.6152Z" fill="#333333"/>
</svg>
