<svg width="32" height="42" viewBox="0 0 32 42" fill="none" xmlns="http://www.w3.org/2000/svg">
<path d="M19.3333 8.33317C20.3459 8.33317 21.1667 7.51236 21.1667 6.49984C21.1667 5.48731 20.3459 4.6665 19.3333 4.6665C18.3208 4.6665 17.5 5.48731 17.5 6.49984C17.5 7.51236 18.3208 8.33317 19.3333 8.33317Z" fill="#333333"/>
<path d="M24.8333 8.33317C25.8459 8.33317 26.6667 7.51236 26.6667 6.49984C26.6667 5.48731 25.8459 4.6665 24.8333 4.6665C23.8208 4.6665 23 5.48731 23 6.49984C23 7.51236 23.8208 8.33317 24.8333 8.33317Z" fill="#333333"/>
<path d="M1 11.5416H30.3333M2.83333 1H28.5C29.5125 1 30.3333 1.82081 30.3333 2.83333V38.8333C30.3333 39.8459 29.5125 40.6667 28.5 40.6667H2.83333C1.82081 40.6667 1 39.8459 1 38.8333V2.83333C1 1.82081 1.82081 1 2.83333 1ZM22.0833 26C22.0833 29.5438 19.2105 32.4167 15.6667 32.4167C12.1228 32.4167 9.25 29.5438 9.25 26C9.25 22.4562 12.1228 19.5833 15.6667 19.5833C19.2105 19.5833 22.0833 22.4562 22.0833 26Z" stroke="#333333" stroke-width="2"/>
</svg>
