<svg width="23" height="23" viewBox="0 0 23 23" fill="none" xmlns="http://www.w3.org/2000/svg">
<path fill-rule="evenodd" clip-rule="evenodd" d="M22.77 16.101C22.714 17.314 22.522 18.144 22.239 18.869C21.947 19.619 21.557 20.254 20.923 20.889C20.287 21.523 19.651 21.912 18.9 22.204C18.173 22.486 17.343 22.679 16.128 22.734C14.91 22.79 14.522 22.803 11.419 22.803C8.31699 22.803 7.928 22.79 6.711 22.734C5.494 22.678 4.664 22.486 3.939 22.204C3.188 21.912 2.55 21.523 1.916 20.889C1.282 20.255 0.890991 19.619 0.599991 18.869C0.316991 18.145 0.123 17.315 0.0690002 16.101C0.0130002 14.885 0 14.497 0 11.401C0 8.304 0.0140002 7.916 0.0690002 6.7C0.124 5.487 0.316991 4.657 0.599991 3.933C0.890991 3.183 1.282 2.547 1.916 1.913C2.55 1.279 3.188 0.889 3.939 0.598C4.665 0.316 5.495 0.123 6.711 0.069C7.926 0.013 8.31599 0 11.417 0C14.52 0 14.908 0.013 16.126 0.069C17.342 0.123 18.172 0.317 18.898 0.598C19.649 0.889 20.286 1.279 20.921 1.913C21.556 2.547 21.945 3.183 22.237 3.933C22.52 4.657 22.713 5.487 22.768 6.7C22.824 7.916 22.836 8.304 22.836 11.401C22.838 14.497 22.826 14.885 22.77 16.101ZM17.514 6.684C16.757 6.684 16.143 6.071 16.143 5.315C16.143 4.559 16.757 3.947 17.514 3.947C18.272 3.947 18.885 4.559 18.885 5.315C18.885 6.071 18.272 6.684 17.514 6.684ZM11.417 17.256C8.17899 17.256 5.552 14.634 5.552 11.401C5.552 8.168 8.17899 5.547 11.417 5.547C14.656 5.547 17.282 8.168 17.282 11.401C17.282 14.634 14.657 17.256 11.417 17.256ZM11.417 7.601C9.31499 7.601 7.61 9.302 7.61 11.401C7.61 13.499 9.31499 15.201 11.417 15.201C13.52 15.201 15.224 13.499 15.224 11.401C15.224 9.302 13.52 7.601 11.417 7.601Z" fill="#020202"/>
</svg>
