<svg width="76" height="78" viewBox="0 0 76 78" fill="none" xmlns="http://www.w3.org/2000/svg">
<path fill-rule="evenodd" clip-rule="evenodd" d="M28.0953 61.4621C27.5667 61.1429 26.9378 60.9831 26.2082 60.9831C25.4786 60.9831 24.8496 61.1429 24.321 61.4621C23.7924 61.7821 23.3854 62.2292 23.0999 62.8034C22.8145 63.378 22.6716 64.0461 22.6716 64.8081C22.6716 65.57 22.8142 66.2378 23.0999 66.8127C23.3854 67.3869 23.7924 67.834 24.321 68.1536C24.8496 68.4732 25.4786 68.633 26.2082 68.633C26.9378 68.633 27.5667 68.4732 28.0953 68.1536C28.624 67.834 29.031 67.3869 29.3164 66.8127C29.6018 66.2381 29.7444 65.57 29.7444 64.8081C29.7444 64.0461 29.6018 63.3784 29.3164 62.8034C29.031 62.2292 28.624 61.7824 28.0953 61.4621ZM28.0548 66.1443C27.9011 66.5251 27.6704 66.8192 27.3634 67.0266C27.056 67.2339 26.6709 67.3346 26.2082 67.3274C25.7454 67.3206 25.3604 67.2139 25.053 67.0065C24.7456 66.7991 24.5149 66.5084 24.3612 66.1344C24.2075 65.7604 24.1308 65.3187 24.1308 64.8087C24.1308 64.2988 24.2075 63.8533 24.3612 63.4722C24.5149 63.0918 24.7456 62.7977 25.053 62.5899C25.3604 62.3829 25.7454 62.2822 26.2082 62.289C26.6709 62.2962 27.056 62.4029 27.3634 62.61C27.6708 62.8177 27.9011 63.1084 28.0548 63.4821C28.2085 63.8564 28.2855 64.2981 28.2855 64.8081C28.2855 65.3181 28.2085 65.7635 28.0548 66.1443ZM15.2 18.0202H10.1333V58.2801H15.2V18.0202ZM25.3333 28.6002H20.2667V58.2801H25.3333V28.6002ZM40.7694 65.7159C40.7694 65.9539 40.7299 66.1715 40.6505 66.3687C40.5712 66.5658 40.4604 66.7358 40.3188 66.8786C40.1773 67.0214 40.0105 67.132 39.8193 67.2105C39.6288 67.2883 39.4214 67.3274 39.1988 67.3274C38.9826 67.3274 38.7789 67.2897 38.5881 67.2129C38.3972 67.136 38.2297 67.0266 38.0868 66.8838C37.9429 66.741 37.8308 66.5709 37.7497 66.3737C37.6686 66.1766 37.6281 65.9573 37.6281 65.7159V61.1361L36.2297 61.1459V65.7261C36.2297 66.3143 36.3547 66.8256 36.6046 67.2612C36.8546 67.6964 37.2025 68.0336 37.6484 68.2737C38.0942 68.5137 38.611 68.6334 39.1988 68.6334C39.7862 68.6334 40.3036 68.5134 40.7492 68.2737C41.1947 68.034 41.5429 67.6967 41.7929 67.2612C42.0429 66.8256 42.1678 66.3146 42.1678 65.7261V61.1361H40.7691L40.7694 65.7159ZM14.8082 64.1553H11.5452V61.1361H10.1671V68.48H11.5452V65.4507H14.8082V68.48H16.1863V61.1361H14.8082V64.1553ZM25.3333 18.0202H20.2667V23.1202H25.3333V18.0202ZM45.6 58.2801V40.7002H40.5333V58.2801H45.6ZM61.0263 68.48H65.789V67.1843H62.4041V65.2977H65.1806V64.0019H62.4041V62.4311H65.789V61.1357H61.0263V68.48ZM55.7333 40.7002H60.8V58.2801H65.8667V18.0202H64.8533H60.8H55.7333H52.6933H50.6667V58.2801H55.7333V40.7002ZM55.7333 23.1202H60.8V35.6002H55.7333V23.1202ZM30.4 18.0202V23.1202V35.6002V40.7002V58.2801H35.4667V40.7002H40.5333L45.6 35.6002V18.0202H42.56H40.5333H35.4667H30.4ZM40.5333 35.6002H35.4667V23.1202H40.5333V35.6002ZM52.261 67.2306C52.0482 67.3019 51.8286 67.3376 51.6023 67.3376C51.1973 67.3376 50.8356 67.2234 50.518 66.9956C50.2005 66.7678 49.9911 66.4431 49.8898 66.0215L48.4508 66.2361C48.5255 66.7325 48.7015 67.1598 48.9805 67.5182C49.2588 67.8772 49.6152 68.1523 50.0492 68.3447C50.4832 68.5372 50.9707 68.633 51.5111 68.633C51.8827 68.633 52.2431 68.5851 52.5927 68.4902C52.9423 68.3951 53.2554 68.2516 53.5324 68.0591C53.8093 67.8667 54.0299 67.6239 54.1937 67.3295C54.3576 67.0357 54.4396 66.6913 54.4396 66.2969C54.4396 65.9263 54.3711 65.6203 54.2346 65.3789C54.0978 65.1375 53.9239 64.943 53.7127 64.7948C53.5016 64.6469 53.2814 64.5316 53.0514 64.448C52.8214 64.3644 52.6123 64.2977 52.4231 64.2464L51.1564 63.8996C51.0014 63.8588 50.8491 63.8074 50.7004 63.7466C50.5518 63.6857 50.4285 63.6045 50.3306 63.5042C50.2326 63.4039 50.1836 63.274 50.1836 63.1145C50.1836 62.9408 50.2434 62.7912 50.363 62.6657C50.4829 62.5399 50.6383 62.4441 50.8295 62.3774C51.02 62.3111 51.2237 62.2812 51.4398 62.288C51.6594 62.2951 51.8698 62.3407 52.0708 62.4257C52.2718 62.5107 52.4447 62.6348 52.5903 62.798C52.7356 62.9609 52.8352 63.1618 52.8892 63.4001L54.3788 63.1451C54.2603 62.6858 54.0678 62.2979 53.8009 61.9796C53.5344 61.6614 53.203 61.4196 52.8082 61.2527C52.413 61.0864 51.9637 60.9994 51.4604 60.9926C50.9605 60.9892 50.5045 61.0674 50.0924 61.2269C49.6804 61.387 49.351 61.6301 49.1044 61.9562C48.8579 62.2829 48.7342 62.6926 48.7342 63.1852C48.7342 63.5354 48.7927 63.8255 48.9092 64.055C49.0261 64.2845 49.1717 64.4691 49.3476 64.6085C49.5233 64.7479 49.705 64.855 49.8921 64.9298C50.0796 65.0046 50.2444 65.0624 50.3863 65.1032L52.2809 65.6642C52.4228 65.708 52.5403 65.7573 52.6332 65.8121C52.7261 65.8661 52.7977 65.9239 52.8484 65.9855C52.899 66.047 52.9355 66.112 52.9575 66.1817C52.9794 66.2514 52.9906 66.3238 52.9906 66.3986C52.9906 66.6029 52.9223 66.7743 52.7852 66.9137C52.6484 67.0537 52.4738 67.1592 52.261 67.2306ZM38.128 0L38.0773 0.192099L38.0317 0.0210799L0 10.2003V72.9V73.24V78H76V73.24V72.9V10.2003L38.128 0ZM70.9333 72.9H5.06667V14.2877L38.0517 5.29921L70.9333 14.285V72.9Z" fill="black"/>
</svg>
