<svg width="34" height="40" viewBox="0 0 34 40" fill="none" xmlns="http://www.w3.org/2000/svg">
<path fill-rule="evenodd" clip-rule="evenodd" d="M17.0572 39.3684L17.0346 39.2824L17.0142 39.3589L0 30.3314V2.28156V2.12946V0H34V2.12946V2.28156V30.3314L17.0572 39.3684Z" fill="black"/>
<path fill-rule="evenodd" clip-rule="evenodd" d="M6.74042 4.92139H4.47375V22.9323H6.74042V4.92139ZM11.2737 9.65451H9.00708V22.9323H11.2737V9.65451ZM11.2737 4.92139H9.00708V7.20295H11.2737V4.92139ZM20.3404 22.9323V15.0676H18.0737V22.9323H20.3404ZM24.8737 15.0676H27.1404V22.9323H29.4071V4.92139H28.9537H27.1404H24.8737H23.5137H22.6071V22.9323H24.8737V15.0676ZM24.8737 7.20295H27.1404V12.7861H24.8737V7.20295ZM13.5404 4.92139V7.20295V12.7861V15.0676V22.9323H15.8071V15.0676H18.0737L20.3404 12.7861V4.92139H18.9804H18.0737H15.8071H13.5404ZM18.0737 12.7861H15.8071V7.20295H18.0737V12.7861Z" fill="white"/>
</svg>
