<svg width="24" height="22" viewBox="0 0 24 22" fill="none" xmlns="http://www.w3.org/2000/svg">
<path d="M22.1045 6.48378L21.1346 6.72698L21.1346 6.72701L22.1045 6.48378ZM20.1993 3.12753L20.9065 2.42043L20.9065 2.42042L20.1993 3.12753ZM16.8432 1.22237L17.0864 0.252402L17.0864 0.252401L16.8432 1.22237ZM17.0671 6.01872L17.7742 5.31161L17.7742 5.31159L17.0671 6.01872ZM7.93547 3.31503L8.80978 2.82966L8.80974 2.82958L7.93547 3.31503ZM9.29981 5.77267L10.1741 5.28732L10.1741 5.2873L9.29981 5.77267ZM9.32223 6.81287L8.42783 6.3656L8.4278 6.36566L9.32223 6.81287ZM8.00786 9.44161L7.11343 8.9944L6.96131 9.29864L7.02625 9.63254L8.00786 9.44161ZM9.98287 12.9941L9.27576 13.7012L9.27577 13.7012L9.98287 12.9941ZM13.5287 14.9625L13.3404 15.9446L13.673 16.0084L13.9759 15.8569L13.5287 14.9625ZM16.1571 13.6483L16.6043 14.5428L16.6044 14.5427L16.1571 13.6483ZM17.1979 13.6711L17.6838 12.7971L17.6838 12.7971L17.1979 13.6711ZM19.6625 15.0413L19.1766 15.9153L19.1767 15.9154L19.6625 15.0413ZM17.5322 20.8666L17.852 19.919L17.8519 19.919L17.5322 20.8666ZM7.6168 15.3601L8.32392 14.653L8.3239 14.653L7.6168 15.3601ZM2.11037 5.44469L1.16285 5.7644L1.16285 5.7644L2.11037 5.44469ZM23.2323 9.47612C23.3926 8.40071 23.3401 7.29972 23.0745 6.24055L21.1346 6.72701C21.3359 7.52975 21.3758 8.36518 21.2542 9.18124L23.2323 9.47612ZM23.0745 6.24058C22.7234 4.84004 21.9997 3.51366 20.9065 2.42043L19.4922 3.83464C20.3225 4.66488 20.869 5.66787 21.1346 6.72698L23.0745 6.24058ZM20.9065 2.42042C19.8132 1.32718 18.4868 0.60357 17.0864 0.252402L16.5999 2.19234C17.659 2.45791 18.662 3.00441 19.4922 3.83464L20.9065 2.42042ZM17.0864 0.252401C16.0272 -0.0131879 14.9262 -0.0657007 13.8508 0.0946019L14.1456 2.07275C14.9617 1.9511 15.7972 1.99105 16.5999 2.19234L17.0864 0.252401ZM18.9995 9.02824C19.1952 7.71521 18.7877 6.32506 17.7742 5.31161L16.36 6.72583C16.9063 7.27214 17.1276 8.02018 17.0213 8.73336L18.9995 9.02824ZM17.7742 5.31159C16.7608 4.29821 15.3707 3.89057 14.0576 4.08631L14.3525 6.06445C15.0656 5.95815 15.8136 6.17948 16.36 6.72585L17.7742 5.31159ZM6.96029 3.74101C7.0021 3.74101 7.04079 3.76372 7.0612 3.80047L8.80974 2.82958C8.43675 2.15785 7.7288 1.74101 6.96029 1.74101V3.74101ZM7.06116 3.80039L8.4255 6.25803L10.1741 5.2873L8.80978 2.82966L7.06116 3.80039ZM8.42548 6.25801C8.44399 6.29135 8.44483 6.33161 8.42783 6.3656L10.2166 7.26015C10.5289 6.63573 10.5129 5.89756 10.1741 5.28732L8.42548 6.25801ZM8.4278 6.36566L7.11343 8.9944L8.90228 9.88883L10.2167 7.26009L8.4278 6.36566ZM8.00786 9.44161C7.02625 9.63254 7.02631 9.63285 7.02638 9.63317C7.0264 9.63328 7.02646 9.63361 7.02651 9.63384C7.0266 9.63431 7.0267 9.6348 7.0268 9.63533C7.02701 9.63638 7.02724 9.63755 7.0275 9.63885C7.02801 9.64143 7.02863 9.6445 7.02936 9.64805C7.03081 9.65513 7.03269 9.66411 7.03502 9.67492C7.03968 9.69653 7.04616 9.72545 7.05468 9.76111C7.0717 9.83238 7.0969 9.93081 7.13204 10.0517C7.2022 10.293 7.3127 10.6263 7.47807 11.0131C7.8071 11.7828 8.3642 12.7896 9.27576 13.7012L10.69 12.2869C10.0074 11.6044 9.57702 10.835 9.31707 10.2269C9.18796 9.92493 9.1036 9.66903 9.05252 9.49334C9.02705 9.40571 9.01004 9.33869 9 9.29664C8.99498 9.27563 8.99172 9.26092 8.99003 9.25307C8.98918 9.24914 8.98872 9.24693 8.98864 9.24651C8.98859 9.2463 8.98864 9.24654 8.98878 9.24723C8.98885 9.24757 8.98894 9.24804 8.98906 9.24861C8.98911 9.2489 8.98917 9.24922 8.98924 9.24956C8.98928 9.24973 8.98933 9.25002 8.98935 9.2501C8.9894 9.25039 8.98946 9.25069 8.00786 9.44161ZM9.27577 13.7012C10.1875 14.6129 11.1929 15.1685 11.9616 15.496C12.3479 15.6606 12.6806 15.7703 12.9216 15.8399C13.0422 15.8747 13.1405 15.8996 13.2117 15.9165C13.2474 15.9249 13.2763 15.9313 13.2979 15.9359C13.3087 15.9382 13.3177 15.9401 13.3248 15.9415C13.3284 15.9422 13.3314 15.9428 13.334 15.9434C13.3353 15.9436 13.3365 15.9438 13.3376 15.944C13.3381 15.9441 13.3386 15.9442 13.3391 15.9443C13.3393 15.9444 13.3396 15.9444 13.3397 15.9445C13.3401 15.9445 13.3404 15.9446 13.5287 14.9625C13.7171 13.9804 13.7174 13.9804 13.7177 13.9805C13.7178 13.9805 13.7181 13.9806 13.7182 13.9806C13.7186 13.9807 13.7189 13.9807 13.7192 13.9808C13.7198 13.9809 13.7202 13.981 13.7206 13.9811C13.7213 13.9812 13.7216 13.9813 13.7214 13.9812C13.721 13.9811 13.7188 13.9807 13.715 13.9799C13.7072 13.9782 13.6926 13.975 13.6718 13.9701C13.63 13.9602 13.5634 13.9435 13.4762 13.9183C13.3014 13.8679 13.0466 13.7843 12.7456 13.6561C12.1399 13.398 11.3724 12.9694 10.69 12.2869L9.27577 13.7012ZM13.9759 15.8569L16.6043 14.5428L15.7099 12.7539L13.0815 14.0681L13.9759 15.8569ZM16.6044 14.5427C16.6384 14.5257 16.6787 14.5266 16.712 14.5451L17.6838 12.7971C17.0733 12.4577 16.3346 12.4415 15.7098 12.7539L16.6044 14.5427ZM16.712 14.5451L19.1766 15.9153L20.1484 14.1673L17.6838 12.7971L16.712 14.5451ZM19.1767 15.9154C19.2132 15.9357 19.2359 15.9743 19.2359 16.0162H21.2359C21.2359 15.2482 20.8197 14.5405 20.1483 14.1673L19.1767 15.9154ZM19.2359 16.0162V18.8456H21.2359V16.0162H19.2359ZM19.2359 18.8456C19.2359 19.6614 18.5142 20.1425 17.852 19.919L17.2125 21.8141C19.2809 22.512 21.2359 20.9117 21.2359 18.8456H19.2359ZM17.8519 19.919C15.0688 18.98 10.9084 17.2375 8.32392 14.653L6.90969 16.0672C9.84284 19.0004 14.3876 20.8609 17.2125 21.8141L17.8519 19.919ZM8.3239 14.653C5.73941 12.0686 3.99696 7.90809 3.05788 5.12498L1.16285 5.7644C2.11604 8.58933 3.9765 13.1341 6.9097 16.0672L8.3239 14.653ZM3.05788 5.12498C2.83443 4.46274 3.31554 3.74101 4.13128 3.74101V1.74101C2.06526 1.74101 0.46496 3.69606 1.16285 5.7644L3.05788 5.12498ZM4.13128 3.74101H6.96029V1.74101H4.13128V3.74101Z" fill="#B5B5B5"/>
</svg>
