<svg width="45" height="39" viewBox="0 0 45 39" fill="none" xmlns="http://www.w3.org/2000/svg">
<path d="M29.375 38.75C29.9273 38.75 30.375 38.3023 30.375 37.75C30.375 37.1977 29.9273 36.75 29.375 36.75V38.75ZM14.875 36.75C14.3227 36.75 13.875 37.1977 13.875 37.75C13.875 38.3023 14.3227 38.75 14.875 38.75V36.75ZM4.375 2H40.375V0H4.375V2ZM40.375 2C41.6867 2 42.75 3.06332 42.75 4.375H44.75C44.75 1.95875 42.7912 0 40.375 0V2ZM42.75 4.375V29.125H44.75V4.375H42.75ZM42.75 29.125C42.75 30.4367 41.6867 31.5 40.375 31.5V33.5C42.7912 33.5 44.75 31.5413 44.75 29.125H42.75ZM40.375 31.5H4.375V33.5H40.375V31.5ZM4.375 31.5C3.06332 31.5 2 30.4367 2 29.125H0C0 31.5413 1.95875 33.5 4.375 33.5V31.5ZM2 29.125V4.375H0V29.125H2ZM2 4.375C2 3.06332 3.06332 2 4.375 2V0C1.95875 0 0 1.95875 0 4.375H2ZM29.375 36.75H14.875V38.75H29.375V36.75Z" fill="#333333"/>
</svg>
